<svg xmlns="http://www.w3.org/2000/svg" width="14" height="10" viewBox="0 0 14 10" fill="none">
  <path d="M5.44863 9.2797C5.31737 9.27997 5.18734 9.25431 5.06602 9.2042C4.94469 9.15409 4.83446 9.08052 4.74163 8.9877L0.499634 4.7447C0.404061 4.65252 0.327803 4.54223 0.275309 4.42026C0.222816 4.2983 0.195138 4.1671 0.193892 4.03432C0.192645 3.90154 0.217854 3.76985 0.268048 3.64692C0.318242 3.52398 0.392416 3.41228 0.486241 3.31832C0.580067 3.22436 0.691664 3.15003 0.814524 3.09967C0.937383 3.0493 1.06904 3.0239 1.20182 3.02496C1.3346 3.02602 1.46584 3.05351 1.58788 3.10583C1.70992 3.15815 1.82032 3.23426 1.91263 3.3297L5.44763 6.8647L11.8126 0.501699C12.0001 0.314058 12.2545 0.20859 12.5198 0.208496C12.7851 0.208402 13.0395 0.313691 13.2271 0.501199C13.4148 0.688707 13.5202 0.943075 13.5203 1.20835C13.5204 1.47362 13.4151 1.72806 13.2276 1.9157L6.15563 8.9877C6.06281 9.08052 5.95258 9.15409 5.83125 9.2042C5.70993 9.25431 5.5799 9.27997 5.44863 9.2797Z" fill="#2FAB73"/>
</svg>